<mxfile host="app.diagrams.net" modified="2024-05-21T02:39:39.947Z" agent="Mozilla/5.0 (Macintosh; Intel Mac OS X 10_15_7) AppleWebKit/537.36 (KHTML, like Gecko) Chrome/123.0.0.0 Safari/537.36" etag="5eiFCWAF6okPPBk4ULr9" version="24.4.4" type="github">
  <diagram id="6a731a19-8d31-9384-78a2-239565b7b9f0" name="Page-1">
    <mxGraphModel dx="1026" dy="566" grid="1" gridSize="10" guides="1" tooltips="1" connect="1" arrows="1" fold="1" page="1" pageScale="1" pageWidth="4681" pageHeight="3300" background="none" math="0" shadow="0">
      <root>
        <mxCell id="0" />
        <mxCell id="1" parent="0" />
        <mxCell id="2" value="start" style="shape=mxgraph.flowchart.terminator;strokeWidth=2;gradientColor=none;gradientDirection=north;fontStyle=0;html=1;" parent="1" vertex="1">
          <mxGeometry x="260" y="60" width="120" height="30" as="geometry" />
        </mxCell>
        <mxCell id="7" style="fontStyle=1;strokeColor=#003366;strokeWidth=1;html=1;entryX=0.5;entryY=0;entryDx=0;entryDy=0;entryPerimeter=0;" parent="1" source="2" target="C7ivXrBSGmsxVoR6yv0a-55" edge="1">
          <mxGeometry relative="1" as="geometry">
            <mxPoint x="515.5" y="134.3609090909091" as="targetPoint" />
          </mxGeometry>
        </mxCell>
        <mxCell id="8" style="fontStyle=1;strokeColor=#003366;strokeWidth=1;html=1;" parent="1" edge="1">
          <mxGeometry relative="1" as="geometry">
            <mxPoint x="320" y="186.99545454545452" as="sourcePoint" />
            <mxPoint x="320" y="240" as="targetPoint" />
          </mxGeometry>
        </mxCell>
        <mxCell id="C7ivXrBSGmsxVoR6yv0a-55" value="&lt;div&gt;检测阿里配置&lt;/div&gt;" style="shape=mxgraph.flowchart.decision;strokeWidth=2;gradientColor=none;gradientDirection=north;fontStyle=0;html=1;" vertex="1" parent="1">
          <mxGeometry x="271" y="130" width="98" height="57" as="geometry" />
        </mxCell>
        <mxCell id="C7ivXrBSGmsxVoR6yv0a-57" value="不能新增科目" style="strokeWidth=2;html=1;shape=mxgraph.flowchart.terminator;whiteSpace=wrap;" vertex="1" parent="1">
          <mxGeometry x="450" y="128.5" width="100" height="60" as="geometry" />
        </mxCell>
        <mxCell id="C7ivXrBSGmsxVoR6yv0a-58" style="edgeStyle=orthogonalEdgeStyle;rounded=0;orthogonalLoop=1;jettySize=auto;html=1;exitX=1;exitY=0.5;exitDx=0;exitDy=0;exitPerimeter=0;entryX=0;entryY=0.5;entryDx=0;entryDy=0;entryPerimeter=0;" edge="1" parent="1" source="C7ivXrBSGmsxVoR6yv0a-55" target="C7ivXrBSGmsxVoR6yv0a-57">
          <mxGeometry relative="1" as="geometry" />
        </mxCell>
        <mxCell id="C7ivXrBSGmsxVoR6yv0a-59" value="是" style="edgeLabel;html=1;align=center;verticalAlign=middle;resizable=0;points=[];" vertex="1" connectable="0" parent="C7ivXrBSGmsxVoR6yv0a-58">
          <mxGeometry x="-0.2593" y="2" relative="1" as="geometry">
            <mxPoint y="1" as="offset" />
          </mxGeometry>
        </mxCell>
        <mxCell id="C7ivXrBSGmsxVoR6yv0a-63" style="edgeStyle=orthogonalEdgeStyle;rounded=0;orthogonalLoop=1;jettySize=auto;html=1;exitX=1;exitY=0.5;exitDx=0;exitDy=0;exitPerimeter=0;entryX=0.5;entryY=0;entryDx=0;entryDy=0;" edge="1" parent="1" source="C7ivXrBSGmsxVoR6yv0a-61" target="C7ivXrBSGmsxVoR6yv0a-62">
          <mxGeometry relative="1" as="geometry" />
        </mxCell>
        <mxCell id="C7ivXrBSGmsxVoR6yv0a-74" value="是" style="edgeLabel;html=1;align=center;verticalAlign=middle;resizable=0;points=[];" vertex="1" connectable="0" parent="C7ivXrBSGmsxVoR6yv0a-63">
          <mxGeometry x="-0.3201" y="1" relative="1" as="geometry">
            <mxPoint y="1" as="offset" />
          </mxGeometry>
        </mxCell>
        <mxCell id="C7ivXrBSGmsxVoR6yv0a-79" style="edgeStyle=orthogonalEdgeStyle;rounded=0;orthogonalLoop=1;jettySize=auto;html=1;exitX=0.5;exitY=1;exitDx=0;exitDy=0;exitPerimeter=0;entryX=0.5;entryY=0;entryDx=0;entryDy=0;" edge="1" parent="1" source="C7ivXrBSGmsxVoR6yv0a-61" target="C7ivXrBSGmsxVoR6yv0a-78">
          <mxGeometry relative="1" as="geometry" />
        </mxCell>
        <mxCell id="C7ivXrBSGmsxVoR6yv0a-61" value="&lt;div&gt;是否用code替换id&lt;/div&gt;" style="shape=mxgraph.flowchart.decision;strokeWidth=2;gradientColor=none;gradientDirection=north;fontStyle=0;html=1;" vertex="1" parent="1">
          <mxGeometry x="271" y="240" width="98" height="57" as="geometry" />
        </mxCell>
        <mxCell id="C7ivXrBSGmsxVoR6yv0a-62" value="根据code查询父级科目" style="rounded=1;whiteSpace=wrap;html=1;absoluteArcSize=1;arcSize=14;strokeWidth=2;" vertex="1" parent="1">
          <mxGeometry x="450" y="314" width="100" height="100" as="geometry" />
        </mxCell>
        <mxCell id="C7ivXrBSGmsxVoR6yv0a-68" style="edgeStyle=orthogonalEdgeStyle;rounded=0;orthogonalLoop=1;jettySize=auto;html=1;exitX=1;exitY=0.5;exitDx=0;exitDy=0;exitPerimeter=0;" edge="1" parent="1" source="C7ivXrBSGmsxVoR6yv0a-66">
          <mxGeometry relative="1" as="geometry">
            <mxPoint x="810" y="364" as="targetPoint" />
          </mxGeometry>
        </mxCell>
        <mxCell id="C7ivXrBSGmsxVoR6yv0a-69" value="是" style="edgeLabel;html=1;align=center;verticalAlign=middle;resizable=0;points=[];" vertex="1" connectable="0" parent="C7ivXrBSGmsxVoR6yv0a-68">
          <mxGeometry x="-0.1031" y="1" relative="1" as="geometry">
            <mxPoint as="offset" />
          </mxGeometry>
        </mxCell>
        <mxCell id="C7ivXrBSGmsxVoR6yv0a-72" style="edgeStyle=orthogonalEdgeStyle;rounded=0;orthogonalLoop=1;jettySize=auto;html=1;exitX=0.5;exitY=1;exitDx=0;exitDy=0;exitPerimeter=0;entryX=1;entryY=0.5;entryDx=0;entryDy=0;" edge="1" parent="1" source="C7ivXrBSGmsxVoR6yv0a-66" target="C7ivXrBSGmsxVoR6yv0a-71">
          <mxGeometry relative="1" as="geometry" />
        </mxCell>
        <mxCell id="C7ivXrBSGmsxVoR6yv0a-66" value="父级科目为空" style="shape=mxgraph.flowchart.decision;strokeWidth=2;gradientColor=none;gradientDirection=north;fontStyle=0;html=1;" vertex="1" parent="1">
          <mxGeometry x="630" y="335.5" width="98" height="57" as="geometry" />
        </mxCell>
        <mxCell id="C7ivXrBSGmsxVoR6yv0a-67" style="edgeStyle=orthogonalEdgeStyle;rounded=0;orthogonalLoop=1;jettySize=auto;html=1;exitX=1;exitY=0.5;exitDx=0;exitDy=0;entryX=0;entryY=0.5;entryDx=0;entryDy=0;entryPerimeter=0;" edge="1" parent="1" source="C7ivXrBSGmsxVoR6yv0a-62" target="C7ivXrBSGmsxVoR6yv0a-66">
          <mxGeometry relative="1" as="geometry" />
        </mxCell>
        <mxCell id="C7ivXrBSGmsxVoR6yv0a-70" value="未查询到父级科目" style="strokeWidth=2;html=1;shape=mxgraph.flowchart.terminator;whiteSpace=wrap;" vertex="1" parent="1">
          <mxGeometry x="810" y="332.5" width="100" height="60" as="geometry" />
        </mxCell>
        <mxCell id="C7ivXrBSGmsxVoR6yv0a-85" style="edgeStyle=orthogonalEdgeStyle;rounded=0;orthogonalLoop=1;jettySize=auto;html=1;exitX=0;exitY=0.5;exitDx=0;exitDy=0;entryX=1;entryY=0.5;entryDx=0;entryDy=0;" edge="1" parent="1" source="C7ivXrBSGmsxVoR6yv0a-71" target="C7ivXrBSGmsxVoR6yv0a-78">
          <mxGeometry relative="1" as="geometry" />
        </mxCell>
        <mxCell id="C7ivXrBSGmsxVoR6yv0a-71" value="设置父级科目ID" style="rounded=1;whiteSpace=wrap;html=1;absoluteArcSize=1;arcSize=14;strokeWidth=2;" vertex="1" parent="1">
          <mxGeometry x="450" y="480" width="100" height="100" as="geometry" />
        </mxCell>
        <mxCell id="C7ivXrBSGmsxVoR6yv0a-78" value="设置科目会计准则" style="rounded=1;whiteSpace=wrap;html=1;absoluteArcSize=1;arcSize=14;strokeWidth=2;" vertex="1" parent="1">
          <mxGeometry x="270" y="480" width="100" height="100" as="geometry" />
        </mxCell>
        <mxCell id="C7ivXrBSGmsxVoR6yv0a-84" style="edgeStyle=orthogonalEdgeStyle;rounded=0;orthogonalLoop=1;jettySize=auto;html=1;exitX=0.5;exitY=1;exitDx=0;exitDy=0;exitPerimeter=0;entryX=0.5;entryY=0;entryDx=0;entryDy=0;" edge="1" parent="1" source="C7ivXrBSGmsxVoR6yv0a-81" target="C7ivXrBSGmsxVoR6yv0a-83">
          <mxGeometry relative="1" as="geometry" />
        </mxCell>
        <mxCell id="C7ivXrBSGmsxVoR6yv0a-81" value="如果code为空，并且上级科目ID不为空" style="shape=mxgraph.flowchart.decision;strokeWidth=2;gradientColor=none;gradientDirection=north;fontStyle=0;html=1;" vertex="1" parent="1">
          <mxGeometry x="271" y="670" width="98" height="57" as="geometry" />
        </mxCell>
        <mxCell id="C7ivXrBSGmsxVoR6yv0a-82" style="edgeStyle=orthogonalEdgeStyle;rounded=0;orthogonalLoop=1;jettySize=auto;html=1;exitX=0.5;exitY=1;exitDx=0;exitDy=0;entryX=0.5;entryY=0;entryDx=0;entryDy=0;entryPerimeter=0;" edge="1" parent="1" source="C7ivXrBSGmsxVoR6yv0a-78" target="C7ivXrBSGmsxVoR6yv0a-81">
          <mxGeometry relative="1" as="geometry" />
        </mxCell>
        <mxCell id="C7ivXrBSGmsxVoR6yv0a-83" value="生成code" style="rounded=1;whiteSpace=wrap;html=1;absoluteArcSize=1;arcSize=14;strokeWidth=2;" vertex="1" parent="1">
          <mxGeometry x="270" y="810" width="100" height="100" as="geometry" />
        </mxCell>
        <mxCell id="C7ivXrBSGmsxVoR6yv0a-86" value="" style="edgeStyle=orthogonalEdgeStyle;sourcePerimeterSpacing=0;targetPerimeterSpacing=0;startArrow=none;endArrow=none;rounded=0;targetPortConstraint=eastwest;sourcePortConstraint=northsouth;curved=0;rounded=0;" edge="1" target="C7ivXrBSGmsxVoR6yv0a-88" parent="1">
          <mxGeometry relative="1" as="geometry">
            <mxPoint x="320" y="910" as="sourcePoint" />
          </mxGeometry>
        </mxCell>
        <mxCell id="C7ivXrBSGmsxVoR6yv0a-87" value="" style="edgeStyle=orthogonalEdgeStyle;sourcePerimeterSpacing=0;targetPerimeterSpacing=0;startArrow=none;endArrow=none;rounded=0;targetPortConstraint=eastwest;sourcePortConstraint=northsouth;curved=0;rounded=0;" edge="1" target="C7ivXrBSGmsxVoR6yv0a-89" parent="1">
          <mxGeometry relative="1" as="geometry">
            <mxPoint x="320" y="910" as="sourcePoint" />
          </mxGeometry>
        </mxCell>
        <mxCell id="C7ivXrBSGmsxVoR6yv0a-88" value="Sub Section" style="whiteSpace=wrap;html=1;align=center;verticalAlign=middle;treeFolding=1;treeMoving=1;" vertex="1" parent="1">
          <mxGeometry x="210" y="950" width="100" height="60" as="geometry" />
        </mxCell>
        <mxCell id="C7ivXrBSGmsxVoR6yv0a-89" value="Sub Section" style="whiteSpace=wrap;html=1;align=center;verticalAlign=middle;treeFolding=1;treeMoving=1;" vertex="1" parent="1">
          <mxGeometry x="330" y="950" width="100" height="60" as="geometry" />
        </mxCell>
      </root>
    </mxGraphModel>
  </diagram>
</mxfile>
